HIERARCHY
ROOT Hips
{
	OFFSET 0.000000 83.214638 0.000000
	CHANNELS 6 Xposition Yposition Zposition Xrotation Yrotation Zrotation
	JOINT Pelvis
	{
		OFFSET 0.000000 0.000000 0.000000
		CHANNELS 3 Xrotation Yrotation Zrotation
		JOINT LeftUpLeg
		{
			OFFSET 8.479700 -4.795502 -0.379100
			CHANNELS 3 Xrotation Yrotation Zrotation
			JOINT LeftLeg
			{
				OFFSET 0.024144 -32.555107 0.112900
				CHANNELS 3 Xrotation Yrotation Zrotation
				JOINT LeftFoot
				{
					OFFSET -0.024144 -32.638630 -3.012600
					CHANNELS 3 Xrotation Yrotation Zrotation
					JOINT LeftToeBase
					{
						OFFSET 0.970200 -13.225400 11.864200
						CHANNELS 3 Xrotation Yrotation Zrotation
						End Site
						{
							OFFSET 0.000000 12.319262 0.000000
						}
					}
					JOINT LFootTongue
					{
						OFFSET 1.142400 -1.059800 6.665200
						CHANNELS 3 Xrotation Yrotation Zrotation
						End Site
						{
							OFFSET 0.000000 12.319262 0.000000
						}
					}
				}
				JOINT LeftPantLeg
				{
					OFFSET 0.918482 -16.533964 -2.284700
					CHANNELS 3 Xrotation Yrotation Zrotation
					End Site
					{
						OFFSET 0.350399 24.744368 0.000000
					}
				}
			}
		}
		JOINT RightUpLeg
		{
			OFFSET -8.479700 -4.795502 -0.379100
			CHANNELS 3 Xrotation Yrotation Zrotation
			JOINT RightLeg
			{
				OFFSET -0.023144 -32.555092 0.112900
				CHANNELS 3 Xrotation Yrotation Zrotation
				JOINT RightFoot
				{
					OFFSET 0.023144 -32.638641 -3.012700
					CHANNELS 3 Xrotation Yrotation Zrotation
					JOINT RightToeBase
					{
						OFFSET -0.970200 -13.225400 11.864200
						CHANNELS 3 Xrotation Yrotation Zrotation
						End Site
						{
							OFFSET 0.000000 12.319244 0.000000
						}
					}
					JOINT RFootTongue
					{
						OFFSET -1.142200 -1.059800 6.665200
						CHANNELS 3 Xrotation Yrotation Zrotation
						End Site
						{
							OFFSET 0.000000 12.319243 0.000000
						}
					}
				}
				JOINT RightPantLeg
				{
					OFFSET -0.919482 -16.533978 -2.284800
					CHANNELS 3 Xrotation Yrotation Zrotation
					End Site
					{
						OFFSET -0.350400 24.744419 0.000000
					}
				}
			}
		}
	}
	JOINT Spine
	{
		OFFSET 0.000000 7.722000 1.166200
		CHANNELS 3 Xrotation Yrotation Zrotation
		JOINT Spine1
		{
			OFFSET 0.000000 12.024101 0.248800
			CHANNELS 3 Xrotation Yrotation Zrotation
			JOINT Spine2
			{
				OFFSET 0.000000 11.502998 -0.491200
				CHANNELS 3 Xrotation Yrotation Zrotation
				JOINT Neck
				{
					OFFSET 0.000000 18.430702 -3.123100
					CHANNELS 3 Xrotation Yrotation Zrotation
					JOINT Head
					{
						OFFSET 0.000000 9.051102 1.034000
						CHANNELS 3 Xrotation Yrotation Zrotation
						JOINT HairB
						{
							OFFSET 0.208400 24.786102 24.822300
							CHANNELS 3 Xrotation Yrotation Zrotation
							End Site
							{
								OFFSET 0.000000 32.263779 0.000000
							}
						}
						JOINT HairA
						{
							OFFSET -7.081100 24.428299 23.196600
							CHANNELS 3 Xrotation Yrotation Zrotation
							End Site
							{
								OFFSET 0.000000 32.263779 0.000000
							}
						}
						JOINT Hat
						{
							OFFSET 16.728800 15.048294 -15.439601
							CHANNELS 3 Xrotation Yrotation Zrotation
							End Site
							{
								OFFSET 0.000000 32.263779 0.000000
							}
						}
					}
				}
				JOINT LeftShoulder
				{
					OFFSET 6.197800 13.665199 -4.064700
					CHANNELS 3 Xrotation Yrotation Zrotation
					JOINT LeftArm
					{
						OFFSET 7.778100 -0.187103 -1.709300
						CHANNELS 3 Xrotation Yrotation Zrotation
						JOINT LeftForeArm
						{
							OFFSET 22.049376 0.000000 0.000000
							CHANNELS 3 Xrotation Yrotation Zrotation
							JOINT LeftHand
							{
								OFFSET 23.009392 0.000000 0.000000
								CHANNELS 3 Xrotation Yrotation Zrotation
								JOINT LeftHandThumb1
								{
									OFFSET 3.507191 -2.063065 3.133727
									CHANNELS 3 Xrotation Yrotation Zrotation
									JOINT LeftHandThumb2
									{
										OFFSET 3.101337 -1.790558 1.790558
										CHANNELS 3 Xrotation Yrotation Zrotation
										JOINT LeftHandThumb3
										{
											OFFSET 3.058640 -1.765907 1.765906
											CHANNELS 3 Xrotation Yrotation Zrotation
											End Site
											{
												OFFSET -0.415260 3.926476 -0.049563
											}
										}
									}
								}
								JOINT LeftHandIndex1
								{
									OFFSET 11.334419 -0.901459 3.706815
									CHANNELS 3 Xrotation Yrotation Zrotation
									JOINT LeftHandIndex2
									{
										OFFSET 3.283112 0.000000 0.000000
										CHANNELS 3 Xrotation Yrotation Zrotation
										JOINT LeftHandIndex3
										{
											OFFSET 3.323853 0.000000 0.000000
											CHANNELS 3 Xrotation Yrotation Zrotation
											End Site
											{
												OFFSET -1.135597 3.097809 0.402452
											}
										}
									}
								}
								JOINT LeftHandMiddle1
								{
									OFFSET 11.335861 0.000000 0.000000
									CHANNELS 3 Xrotation Yrotation Zrotation
									JOINT LeftHandMiddle2
									{
										OFFSET 3.410492 0.000000 0.000000
										CHANNELS 3 Xrotation Yrotation Zrotation
										JOINT LeftHandMiddle3
										{
											OFFSET 3.312172 0.000000 0.000000
											CHANNELS 3 Xrotation Yrotation Zrotation
											End Site
											{
												OFFSET -1.150200 3.080154 0.400270
											}
										}
									}
								}
								JOINT LeftHandRing1
								{
									OFFSET 11.514786 -0.013176 -3.003090
									CHANNELS 3 Xrotation Yrotation Zrotation
									JOINT LeftHandRing2
									{
										OFFSET 3.053307 0.000000 0.000000
										CHANNELS 3 Xrotation Yrotation Zrotation
										JOINT LeftHandRing3
										{
											OFFSET 3.295807 0.000000 0.000000
											CHANNELS 3 Xrotation Yrotation Zrotation
											End Site
											{
												OFFSET -1.281006 3.013344 0.375733
											}
										}
									}
								}
								JOINT LeftHandPinky1
								{
									OFFSET 10.518692 -0.960396 -5.730441
									CHANNELS 3 Xrotation Yrotation Zrotation
									JOINT LeftHandPinky2
									{
										OFFSET 2.861649 0.000000 0.000000
										CHANNELS 3 Xrotation Yrotation Zrotation
										JOINT LeftHandPinky3
										{
											OFFSET 2.863380 0.000000 0.000000
											CHANNELS 3 Xrotation Yrotation Zrotation
											End Site
											{
												OFFSET -0.843597 2.711159 0.369971
											}
										}
									}
								}
							}
							JOINT LSleeve
							{
								OFFSET 6.676277 -0.344902 -1.011730
								CHANNELS 3 Xrotation Yrotation Zrotation
								End Site
								{
									OFFSET 0.000000 14.885353 0.000000
								}
							}
						}
					}
				}
				JOINT RightShoulder
				{
					OFFSET -6.197800 13.665199 -4.064700
					CHANNELS 3 Xrotation Yrotation Zrotation
					JOINT RightArm
					{
						OFFSET -7.778100 -0.187103 -1.709300
						CHANNELS 3 Xrotation Yrotation Zrotation
						JOINT RightForeArm
						{
							OFFSET -22.049376 0.000000 0.000000
							CHANNELS 3 Xrotation Yrotation Zrotation
							JOINT RightHand
							{
								OFFSET -23.009392 0.000000 0.000000
								CHANNELS 3 Xrotation Yrotation Zrotation
								JOINT RightHandThumb1
								{
									OFFSET -3.507191 -2.063065 3.133727
									CHANNELS 3 Xrotation Yrotation Zrotation
									JOINT RightHandThumb2
									{
										OFFSET -3.101337 -1.790558 1.790558
										CHANNELS 3 Xrotation Yrotation Zrotation
										JOINT RightHandThumb3
										{
											OFFSET -3.058640 -1.765907 1.765906
											CHANNELS 3 Xrotation Yrotation Zrotation
											End Site
											{
												OFFSET 0.415260 3.926476 -0.049563
											}
										}
									}
								}
								JOINT RightHandIndex1
								{
									OFFSET -11.334419 -0.901459 3.706815
									CHANNELS 3 Xrotation Yrotation Zrotation
									JOINT RightHandIndex2
									{
										OFFSET -3.283112 0.000000 0.000000
										CHANNELS 3 Xrotation Yrotation Zrotation
										JOINT RightHandIndex3
										{
											OFFSET -3.323853 0.000000 0.000000
											CHANNELS 3 Xrotation Yrotation Zrotation
											End Site
											{
												OFFSET 1.135597 3.097809 0.402452
											}
										}
									}
								}
								JOINT RightHandMiddle1
								{
									OFFSET -11.335861 0.000000 0.000000
									CHANNELS 3 Xrotation Yrotation Zrotation
									JOINT RightHandMiddle2
									{
										OFFSET -3.410492 0.000000 0.000000
										CHANNELS 3 Xrotation Yrotation Zrotation
										JOINT RightHandMiddle3
										{
											OFFSET -3.312172 0.000000 0.000000
											CHANNELS 3 Xrotation Yrotation Zrotation
											End Site
											{
												OFFSET 1.150200 3.080154 0.400270
											}
										}
									}
								}
								JOINT RightHandRing1
								{
									OFFSET -11.514786 -0.013176 -3.003090
									CHANNELS 3 Xrotation Yrotation Zrotation
									JOINT RightHandRing2
									{
										OFFSET -3.053307 0.000000 0.000000
										CHANNELS 3 Xrotation Yrotation Zrotation
										JOINT RightHandRing3
										{
											OFFSET -3.295807 0.000000 0.000000
											CHANNELS 3 Xrotation Yrotation Zrotation
											End Site
											{
												OFFSET 1.281006 3.013344 0.375733
											}
										}
									}
								}
								JOINT RightHandPinky1
								{
									OFFSET -10.518692 -0.960396 -5.730441
									CHANNELS 3 Xrotation Yrotation Zrotation
									JOINT RightHandPinky2
									{
										OFFSET -2.861649 0.000000 0.000000
										CHANNELS 3 Xrotation Yrotation Zrotation
										JOINT RightHandPinky3
										{
											OFFSET -2.863380 0.000000 0.000000
											CHANNELS 3 Xrotation Yrotation Zrotation
											End Site
											{
												OFFSET 0.843597 2.711159 0.369971
											}
										}
									}
								}
							}
							JOINT RSleeve
							{
								OFFSET -6.676277 -0.344902 -1.011730
								CHANNELS 3 Xrotation Yrotation Zrotation
								End Site
								{
									OFFSET 0.000000 14.885353 0.000000
								}
							}
						}
					}
				}
				JOINT Backpack
				{
					OFFSET 0.000000 -2.471497 36.677502
					CHANNELS 3 Xrotation Yrotation Zrotation
					End Site
					{
						OFFSET 0.000000 20.427315 0.000000
					}
				}
				JOINT Hood
				{
					OFFSET 0.000000 18.754097 -10.431000
					CHANNELS 3 Xrotation Yrotation Zrotation
					JOINT Hood1
					{
						OFFSET 0.000000 -5.011002 -7.685901
						CHANNELS 3 Xrotation Yrotation Zrotation
						End Site
						{
							OFFSET 0.000000 9.175140 0.000000
						}
					}
				}
				JOINT LHoodieString
				{
					OFFSET 5.250500 16.397697 3.089900
					CHANNELS 3 Xrotation Yrotation Zrotation
					JOINT LHoodieString1
					{
						OFFSET 0.257700 -6.364304 3.694600
						CHANNELS 3 Xrotation Yrotation Zrotation
						JOINT LHoodieString2
						{
							OFFSET 0.000000 -9.643799 2.679100
							CHANNELS 3 Xrotation Yrotation Zrotation
							End Site
							{
								OFFSET 0.000000 10.009018 0.000000
							}
						}
					}
				}
				JOINT RHoodieString
				{
					OFFSET -5.250500 16.397697 3.089900
					CHANNELS 3 Xrotation Yrotation Zrotation
					JOINT RHoodieString1
					{
						OFFSET -0.257700 -6.364304 3.694600
						CHANNELS 3 Xrotation Yrotation Zrotation
						JOINT RHoodieString2
						{
							OFFSET 0.000000 -9.643799 2.679100
							CHANNELS 3 Xrotation Yrotation Zrotation
							End Site
							{
								OFFSET 0.000000 10.009018 0.000000
							}
						}
					}
				}
			}
			JOINT LBackpack_Strap
			{
				OFFSET 15.223200 -7.719803 -6.610900
				CHANNELS 3 Xrotation Yrotation Zrotation
				End Site
				{
					OFFSET 0.000000 16.040596 0.000000
				}
			}
			JOINT RBackpack_Strap
			{
				OFFSET -15.223000 -7.719803 -6.610900
				CHANNELS 3 Xrotation Yrotation Zrotation
				End Site
				{
					OFFSET 0.000000 16.040596 0.000000
				}
			}
		}
	}
	JOINT BoyFacialAnim_Joint
	{
		OFFSET 1.000000 -82.208099 -1.550900
		CHANNELS 3 Xrotation Yrotation Zrotation
		End Site
		{
			OFFSET 0.000000 30.012791 0.000000
		}
	}
}
MOTION
Frames: 5
Frame Time: 0.016667
0.011375 68.474182 -0.014263 11.723231 3.056199 -1.276818 -0.000000 0.000000 -0.000000 -56.019163 1.466855 4.871411 76.456482 7.582129 -0.617636 -31.183959 5.464543 -5.349026 -0.000000 0.000000 -0.000000 -0.000000 0.000000 -0.000000 -0.000002 -0.000002 0.000000 -53.720387 -14.569487 -6.427281 75.409250 -8.099989 -4.577521 -34.282441 -10.073076 4.226766 0.000000 -0.000000 0.000000 0.000000 -0.000000 0.000000 0.000001 0.000001 0.000001 9.927332 1.434485 1.190239 7.645338 0.753229 0.067568 7.636951 0.840685 0.048856 -11.425857 -1.903120 7.327009 -27.420395 2.052767 -6.271739 0.000000 -0.000000 0.000000 0.000000 -0.000000 0.000000 0.000000 -0.000000 0.000000 3.557358 -26.212552 4.772373 -62.403272 -21.804177 -66.739008 0.000178 -109.450407 0.000184 0.778328 -4.236623 14.397158 -15.245214 10.163086 26.456307 3.939052 7.948702 0.746813 0.000000 -0.000000 0.000001 -0.000005 0.000001 0.000008 0.000009 0.000015 -0.000073 -0.000001 -0.000001 -0.000000 0.000000 -0.001930 0.015981 -0.000000 0.001948 -0.016052 -0.000002 0.000004 0.000001 0.000003 -0.000001 0.000006 -0.000000 0.000022 -0.000075 -0.000001 0.000002 -0.000000 -0.018081 4.054257 0.511069 -0.018082 -4.054239 -0.511130 0.000002 -0.000002 -0.000001 0.000001 -0.000001 -0.000002 1.209609 13.189588 10.689364 -58.736786 43.251189 51.659828 -0.000068 106.371870 0.000056 2.773290 -4.037765 -38.887716 -6.948223 -5.049351 -29.742991 4.637199 -8.634125 -0.225409 -0.000002 0.000000 0.000003 -0.000003 0.000002 -0.000008 0.000008 -0.000009 0.000098 -0.000001 -0.000000 0.000002 -0.000002 0.000000 0.000008 0.000013 -0.000014 0.000084 0.000001 -0.000001 -0.000002 -0.000001 0.000005 0.000010 0.000007 -0.000012 0.000058 0.000004 0.000002 0.000001 -0.000005 0.000007 -0.000002 0.000012 -0.000013 0.000080 -0.000001 0.000001 0.000000 -0.000000 0.000000 -0.000004 -0.000000 -0.000000 0.000000 -0.000000 -0.000000 0.000000 -0.000000 -0.000000 0.000000 -0.000000 -0.000000 0.000000 -0.000000 -0.000000 -0.000000 -0.000003 -0.000001 -0.000000 -0.000000 -0.000000 0.000000 -0.000000 -0.000000 -0.000000 -0.000003 -0.000001 -0.000000 -0.000001 0.000000 -0.000000 -0.000001 0.000000 -0.000000 -0.000000 0.000000 -0.000000 
0.013534 68.476624 -0.011181 11.745904 3.051881 -1.282525 -0.000000 -0.000000 -0.000000 -56.038847 1.458777 4.890084 76.456577 7.578923 -0.645886 -31.178734 5.462192 -5.337335 0.000000 0.000002 -0.000000 0.000000 0.000002 -0.000000 -0.000001 0.000000 -0.000000 -53.735687 -14.573248 -6.417877 75.397324 -8.107097 -4.585617 -34.276198 -10.072206 4.234123 -0.000000 -0.000000 0.000000 -0.000000 -0.000000 0.000000 0.000004 -0.000001 0.000001 9.918943 1.442775 1.181837 7.639421 0.760470 0.063173 7.630975 0.847825 0.044425 -11.435408 -1.910255 7.339548 -27.433916 2.035673 -6.273735 -0.000000 0.000000 -0.000000 -0.000000 0.000000 -0.000000 -0.000000 0.000000 -0.000000 3.557355 -26.212552 4.772373 -62.419337 -21.858333 -66.778657 0.000085 -109.501374 0.000085 0.901636 -4.326308 14.359144 -15.245216 10.163077 26.456304 3.939049 7.948705 0.746813 -0.000001 0.000002 0.000001 -0.000005 0.000006 0.000009 0.000008 0.000018 -0.000071 0.000001 -0.000002 -0.000004 0.000001 -0.001930 0.015985 -0.000001 0.001947 -0.016055 0.000000 -0.000001 -0.000000 0.000006 -0.000001 0.000006 -0.000004 0.000026 -0.000075 0.000000 0.000003 -0.000000 -0.018080 4.054258 0.511067 -0.018083 -4.054241 -0.511125 0.000002 -0.000003 0.000003 0.000001 0.000003 -0.000001 1.208780 13.185488 10.706561 -58.718487 43.222537 51.623150 -0.000163 106.496405 0.000164 2.902272 -4.000202 -38.894792 -6.948227 -5.049356 -29.742991 4.637197 -8.634119 -0.225405 -0.000002 -0.000002 0.000001 -0.000002 -0.000001 -0.000006 0.000008 -0.000008 0.000099 0.000000 0.000005 0.000003 -0.000003 -0.000002 0.000010 0.000010 -0.000015 0.000083 0.000001 -0.000001 -0.000002 -0.000003 0.000004 0.000013 0.000008 -0.000010 0.000054 -0.000000 0.000000 -0.000001 -0.000007 0.000004 -0.000002 0.000011 -0.000017 0.000082 -0.000001 -0.000000 0.000002 -0.000000 -0.000000 -0.000007 -0.000002 0.000001 -0.000000 -0.000002 0.000001 -0.000000 -0.000002 0.000001 -0.000000 -0.000002 0.000001 -0.000000 -0.000002 0.000001 -0.000000 -0.000002 0.000000 -0.000000 -0.000002 0.000001 -0.000000 -0.000002 0.000001 -0.000000 -0.000002 0.000000 -0.000000 -0.000003 -0.000000 0.000000 -0.000003 -0.000000 0.000000 -0.000000 -0.000000 -0.000000 
0.016293 68.477997 -0.007431 11.766518 3.046573 -1.292476 0.000000 -0.000000 0.000000 -56.059348 1.445271 4.911447 76.463114 7.572952 -0.678159 -31.173513 5.471601 -5.322089 0.000000 -0.000000 -0.000000 0.000000 -0.000000 -0.000000 -0.000003 0.000001 -0.000000 -53.748357 -14.580652 -6.406909 75.387243 -8.113157 -4.592523 -34.271461 -10.071461 4.241160 0.000000 -0.000000 0.000000 0.000000 -0.000000 0.000000 -0.000005 0.000001 0.000001 9.910155 1.453697 1.174993 7.633169 0.769255 0.058698 7.624631 0.856616 0.039882 -11.444189 -1.923865 7.361598 -27.436180 1.999900 -6.276385 0.000000 0.000000 0.000000 0.000000 0.000000 0.000000 0.000000 0.000000 0.000000 3.557359 -26.212550 4.772373 -62.439554 -21.913829 -66.819543 -0.000174 -109.545777 -0.000178 1.016411 -4.380410 14.319704 -15.245213 10.163082 26.456304 3.939052 7.948703 0.746811 0.000000 -0.000002 -0.000002 -0.000004 0.000004 0.000009 0.000009 0.000015 -0.000069 0.000001 -0.000002 -0.000000 0.000002 -0.001928 0.015982 -0.000000 0.001946 -0.016054 0.000001 -0.000003 -0.000000 0.000007 -0.000000 0.000005 -0.000002 0.000020 -0.000076 -0.000003 0.000001 0.000002 -0.018080 4.054258 0.511066 -0.018084 -4.054237 -0.511126 -0.000000 0.000002 0.000000 0.000001 0.000003 -0.000001 1.207720 13.175770 10.734724 -58.706890 43.206137 51.589679 0.000103 106.607266 -0.000117 2.994839 -3.971785 -38.906004 -6.948226 -5.049356 -29.742991 4.637203 -8.634123 -0.225399 -0.000001 -0.000001 0.000001 -0.000004 0.000005 -0.000006 0.000009 -0.000007 0.000097 -0.000001 0.000001 0.000002 -0.000003 -0.000003 0.000009 0.000012 -0.000013 0.000085 -0.000001 -0.000001 -0.000000 -0.000003 0.000007 0.000010 0.000009 -0.000012 0.000056 -0.000001 0.000000 0.000000 -0.000005 0.000008 -0.000001 0.000012 -0.000018 0.000081 -0.000000 -0.000000 -0.000002 -0.000000 0.000000 0.000002 -0.000000 0.000000 -0.000000 -0.000000 0.000000 -0.000000 -0.000000 0.000000 -0.000000 -0.000000 0.000000 -0.000000 -0.000000 0.000000 -0.000000 -0.000006 0.000000 0.000000 -0.000000 0.000000 -0.000000 -0.000000 0.000000 -0.000000 -0.000006 0.000000 0.000000 0.000001 0.000000 0.000000 0.000001 0.000000 0.000000 0.000000 -0.000000 0.000000 
0.019935 68.478378 -0.002897 11.784953 3.040178 -1.305521 -0.000000 -0.000000 -0.000000 -56.079620 1.431585 4.933769 76.474001 7.564581 -0.708616 -31.169230 5.489487 -5.304758 -0.000000 0.000000 -0.000000 -0.000000 0.000000 -0.000000 0.000003 0.000001 -0.000000 -53.758185 -14.590406 -6.396367 75.378979 -8.118753 -4.596991 -34.268169 -10.068969 4.248306 -0.000000 -0.000000 -0.000000 -0.000000 -0.000000 -0.000000 -0.000001 -0.000001 0.000000 9.901125 1.467723 1.169211 7.626651 0.780095 0.054114 7.617976 0.867545 0.035189 -11.454982 -1.944256 7.391725 -27.423194 1.943257 -6.281666 -0.000000 -0.000000 -0.000000 -0.000000 -0.000000 -0.000000 -0.000000 -0.000000 -0.000000 3.557361 -26.212555 4.772372 -62.470392 -21.974011 -66.864533 0.000035 -109.579737 0.000050 1.123964 -4.400895 14.281702 -15.245214 10.163088 26.456304 3.939052 7.948709 0.746814 0.000000 0.000002 0.000000 -0.000003 0.000004 0.000005 0.000010 0.000019 -0.000071 0.000001 0.000000 -0.000000 0.000001 -0.001927 0.015980 -0.000001 0.001948 -0.016055 -0.000001 0.000001 0.000000 0.000006 0.000000 0.000003 -0.000002 0.000020 -0.000076 -0.000002 -0.000001 -0.000000 -0.018081 4.054262 0.511066 -0.018083 -4.054246 -0.511130 0.000000 -0.000001 -0.000000 -0.000001 -0.000000 0.000004 1.206693 13.162151 10.768366 -58.707648 43.191159 51.562724 0.000161 106.707048 -0.000162 3.052724 -3.952017 -38.913340 -6.948225 -5.049359 -29.742991 4.637203 -8.634131 -0.225408 -0.000001 -0.000003 0.000004 -0.000003 0.000002 -0.000007 0.000009 -0.000012 0.000096 0.000002 -0.000001 -0.000000 -0.000003 -0.000003 0.000009 0.000014 -0.000010 0.000084 -0.000001 -0.000000 -0.000000 -0.000002 0.000002 0.000011 0.000011 -0.000010 0.000056 -0.000001 -0.000001 -0.000002 -0.000006 0.000004 -0.000000 0.000013 -0.000018 0.000081 -0.000001 -0.000001 0.000000 -0.000000 -0.000003 0.000002 0.000000 0.000001 -0.000000 0.000000 0.000001 -0.000000 0.000000 0.000001 -0.000000 0.000000 0.000001 -0.000000 0.000000 0.000001 -0.000000 -0.000001 0.000000 0.000000 0.000000 0.000001 -0.000000 0.000000 0.000001 -0.000000 -0.000001 0.000000 0.000000 0.000000 -0.000000 0.000000 0.000000 -0.000000 0.000000 -0.000000 -0.000000 -0.000000 
0.024797 68.478271 0.002443 11.802344 3.032310 -1.319856 -0.000000 -0.000000 -0.000000 -56.098680 1.423523 4.954885 76.485811 7.554748 -0.731311 -31.168725 5.510590 -5.287276 0.000000 0.000001 -0.000000 0.000000 0.000001 -0.000000 0.000001 -0.000000 0.000000 -53.766723 -14.600610 -6.388349 75.371950 -8.124877 -4.598137 -34.266366 -10.062417 4.255903 -0.000000 -0.000000 0.000000 -0.000000 -0.000000 0.000000 0.000002 -0.000000 0.000001 9.892299 1.484616 1.163589 7.619998 0.793060 0.049375 7.611133 0.880646 0.030306 -11.470299 -1.969856 7.427054 -27.400911 1.869801 -6.289240 -0.000000 0.000000 0.000000 -0.000000 0.000000 0.000000 -0.000000 0.000000 0.000000 3.557358 -26.212552 4.772373 -62.514174 -22.042325 -66.916053 0.000097 -109.608854 0.000091 1.236712 -4.410135 14.244737 -15.245211 10.163081 26.456301 3.939052 7.948703 0.746813 -0.000001 -0.000002 -0.000001 -0.000004 0.000004 0.000005 0.000009 0.000017 -0.000074 -0.000001 -0.000000 -0.000002 0.000002 -0.001929 0.015981 -0.000000 0.001949 -0.016053 0.000001 -0.000001 -0.000000 0.000006 -0.000000 0.000006 -0.000000 0.000018 -0.000078 -0.000000 0.000001 -0.000002 -0.018081 4.054261 0.511068 -0.018082 -4.054239 -0.511127 0.000001 -0.000001 -0.000002 0.000002 -0.000000 -0.000002 1.205943 13.146150 10.801878 -58.722695 43.168575 51.544091 -0.000062 106.809412 0.000047 3.102360 -3.933558 -38.909668 -6.948227 -5.049356 -29.742991 4.637202 -8.634123 -0.225407 -0.000001 -0.000000 -0.000000 -0.000004 0.000002 -0.000006 0.000008 -0.000007 0.000097 0.000000 -0.000001 0.000002 -0.000003 -0.000002 0.000009 0.000012 -0.000008 0.000081 -0.000001 0.000002 -0.000001 -0.000002 0.000004 0.000013 0.000010 -0.000010 0.000058 -0.000001 -0.000002 0.000002 -0.000006 0.000003 -0.000001 0.000012 -0.000015 0.000082 -0.000001 -0.000001 -0.000002 0.000002 -0.000001 -0.000000 0.000001 -0.000001 0.000000 0.000001 -0.000001 0.000000 0.000001 -0.000001 0.000000 0.000001 -0.000001 0.000000 0.000001 -0.000001 0.000000 -0.000002 -0.000000 -0.000000 0.000001 -0.000001 0.000000 0.000001 -0.000001 0.000000 -0.000002 -0.000000 -0.000000 0.000000 0.000000 -0.000000 0.000000 0.000000 -0.000000 -0.000000 -0.000000 -0.000000 
